HIERARCHY
ROOT SpineBase
{
  OFFSET 0.000000 0.000000 0.000000
  CHANNELS 6 Xposition Yposition Zposition Zrotation Xrotation Yrotation
  JOINT SpineMid
  {
    OFFSET -0.000000 28.947225 0.000000
    CHANNELS 3 Zrotation Xrotation Yrotation
    JOINT SpineShoulder
    {
      OFFSET -0.172210 21.478847 -0.680303
      CHANNELS 3 Zrotation Xrotation Yrotation
      JOINT Neck
      {
        OFFSET -0.117265 7.106100 -0.521892
        CHANNELS 3 Zrotation Xrotation Yrotation
        JOINT Head
        {
          OFFSET -0.964493 12.495718 -0.148626
          CHANNELS 3 Zrotation Xrotation Yrotation
          End Site
          {
            OFFSET 0 0 0
          }
        }
      }
      JOINT ShoulderLeft
      {
        OFFSET -16.475409 -5.025916 3.110435
        CHANNELS 3 Zrotation Xrotation Yrotation
        JOINT ElbowLeft
        {
          OFFSET -0.967385 -19.181027 1.453489
          CHANNELS 3 Zrotation Xrotation Yrotation
          JOINT WristLeft
          {
            OFFSET -0.213269 -19.277096 -2.935172
            CHANNELS 3 Zrotation Xrotation Yrotation
            JOINT HandLeft
            {
              OFFSET -0.647025 -5.446407 -0.044619
              CHANNELS 3 Zrotation Xrotation Yrotation
              JOINT HandTipLeft
              {
                OFFSET -0.568921 -4.922017 -1.917210
                CHANNELS 3 Zrotation Xrotation Yrotation
                End Site
                {
                  OFFSET 0 0 0
                }
              }
              JOINT ThumbLeft
              {
                OFFSET 2.201278 -0.181085 -2.726287
                CHANNELS 3 Zrotation Xrotation Yrotation
                End Site
                {
                  OFFSET 0 0 0
                }
              }
            }
          }
        }
      }
      JOINT ShoulderRight
      {
        OFFSET 14.138717 -4.474846 -8.229018
        CHANNELS 3 Zrotation Xrotation Yrotation
        JOINT ElbowRight
        {
          OFFSET 3.051045 -19.096405 -0.149771
          CHANNELS 3 Zrotation Xrotation Yrotation
          JOINT WristRight
          {
            OFFSET 1.185024 -19.019130 -4.456300
            CHANNELS 3 Zrotation Xrotation Yrotation
            JOINT HandRight
            {
              OFFSET -0.731515 -6.623224 -0.720520
              CHANNELS 3 Zrotation Xrotation Yrotation
              JOINT HandTipRight
              {
                OFFSET 0.756649 -5.144515 -2.160474
                CHANNELS 3 Zrotation Xrotation Yrotation
                End Site
                {
                  OFFSET 0 0 0
                }
              }
              JOINT ThumbRight
              {
                OFFSET 1.565370 -0.130470 -2.790613
                CHANNELS 3 Zrotation Xrotation Yrotation
                End Site
                {
                  OFFSET 0 0 0
                }
              }
            }
          }
        }
      }
    }
  }
  JOINT HipLeft
  {
    OFFSET -6.027745 0.577048 -1.543402
    CHANNELS 3 Zrotation Xrotation Yrotation
    JOINT KneeLeft
    {
      OFFSET 1.997551 -24.936502 5.320220
      CHANNELS 3 Zrotation Xrotation Yrotation
      JOINT AnkleLeft
      {
        OFFSET 5.239848 -31.477555 6.961729
        CHANNELS 3 Zrotation Xrotation Yrotation
        JOINT FootLeft
        {
          OFFSET -3.281503 -2.595117 -10.895560
          CHANNELS 3 Zrotation Xrotation Yrotation
          End Site
          {
            OFFSET 0 0 0
          }
        }
      }
    }
  }
  JOINT HipRight
  {
    OFFSET 4.855942 0.710377 -5.060820
    CHANNELS 3 Zrotation Xrotation Yrotation
    JOINT KneeRight
    {
      OFFSET 7.405053 -24.686481 3.898017
      CHANNELS 3 Zrotation Xrotation Yrotation
      JOINT AnkleRight
      {
        OFFSET 3.347494 -31.701172 10.722040
        CHANNELS 3 Zrotation Xrotation Yrotation
        JOINT FootRight
        {
          OFFSET -3.105732 -2.935754 -10.345833
          CHANNELS 3 Zrotation Xrotation Yrotation
          End Site
          {
            OFFSET 0 0 0
          }
        }
      }
    }
  }
}
MOTION
Frames: 5
Frame Time: 0.033333
91.323858 67.853832 335.291594 5.178867 -3.307805 -43.561437 -0.450736 1.504605 43.804281 -1.212091 -0.498478 0.172703 -25.825651 23.904864 6.278031 0.000000 0.000000 0.000000 -1.423913 16.280800 -1.207501 12.289648 -10.496427 1.023238 6.869738 0.819613 1.782803 -0.326584 -13.342944 -4.436174 0.000000 0.000000 0.000000 0.000000 0.000000 0.000000 -1.419465 -14.755090 -2.634241 4.027861 2.114964 -0.752200 7.107479 14.604861 -1.655920 -13.583494 36.485087 5.160046 0.000000 0.000000 0.000000 0.000000 0.000000 0.000000 -10.140638 26.927005 50.276958 -52.137588 -20.931701 -29.346012 39.293325 -19.899237 -15.698173 0.000000 0.000000 0.000000 -18.483208 -11.692110 39.793563 2.639033 10.958746 0.444296 15.781953 -0.145874 -11.551766 0.000000 0.000000 0.000000
91.405000 67.655532 336.132841 3.331722 -4.299759 -43.980461 -0.602736 1.626305 44.147470 -1.248311 -0.733781 0.088425 -25.487361 25.476210 7.364020 0.000000 0.000000 0.000000 2.184322 16.506208 -1.230707 12.987414 -10.767290 0.761077 5.913051 -0.801476 2.715030 0.166707 -12.991480 -5.181351 0.000000 0.000000 0.000000 0.000000 0.000000 0.000000 0.473682 -13.735731 -2.552765 4.039592 2.117536 -0.749295 4.699039 19.012576 -1.752123 -11.357894 32.020267 5.172228 0.000000 0.000000 0.000000 0.000000 0.000000 0.000000 -5.114021 35.084120 51.580737 -56.328197 -18.151885 -29.089390 37.205983 -25.461005 -14.022523 0.000000 0.000000 0.000000 -18.772816 -10.715731 40.327589 4.488460 11.780715 0.987679 16.872650 -2.547607 -15.214659 0.000000 0.000000 0.000000
91.389347 67.401128 337.226143 1.046935 -5.504365 -43.050385 -0.701157 1.566717 43.088309 -1.155743 -0.804807 -0.021797 -20.932521 28.291618 7.787986 0.000000 0.000000 0.000000 4.943925 16.814092 -1.170997 15.026468 -10.740632 0.656385 5.286491 -2.630619 3.804212 3.782303 -14.099387 -6.640428 0.000000 0.000000 0.000000 0.000000 0.000000 0.000000 2.781145 -12.509918 -2.499264 4.053534 2.121597 -0.745704 4.722012 19.019281 -1.760903 -11.787925 31.931851 5.422648 0.000000 0.000000 0.000000 0.000000 0.000000 0.000000 1.083361 43.199868 50.105818 -57.415211 -15.496346 -27.415948 32.004037 -29.670578 -18.953646 0.000000 0.000000 0.000000 -19.020456 -9.731521 39.250247 6.737808 14.735512 2.229352 19.281890 -9.250465 -21.414757 0.000000 0.000000 0.000000
91.695449 66.821117 338.200451 -0.873367 -6.658690 -43.924258 -0.778254 1.262199 43.815456 -0.935253 -0.774661 -0.115980 -18.347507 31.183204 8.536913 0.000000 0.000000 0.000000 7.647960 17.477447 -1.264277 15.513933 -11.509973 0.624658 5.747973 -3.049413 4.286200 8.691288 -14.763006 -8.841043 0.000000 0.000000 0.000000 0.000000 0.000000 0.000000 4.677789 -11.217409 -2.508505 4.067689 2.126518 -0.742032 4.745049 19.026359 -1.769737 -12.224629 31.863281 5.679149 0.000000 0.000000 0.000000 0.000000 0.000000 0.000000 6.604800 49.234121 49.398539 -54.618968 -12.246426 -23.578049 23.132040 -30.330292 -31.353896 0.000000 0.000000 0.000000 -18.980989 -8.320889 40.436786 6.506559 16.529927 2.585495 24.423296 -19.129240 -30.095610 0.000000 0.000000 0.000000
92.685677 66.274912 338.977935 -2.266686 -7.555277 -43.993760 -0.732997 0.847820 43.746559 -0.557096 -0.636715 -0.180951 -15.908354 33.629988 8.859267 0.000000 0.000000 0.000000 9.839467 17.818099 -1.419254 15.788138 -12.078419 0.511391 5.146084 -3.356304 4.688139 10.336117 -10.628534 -11.812695 0.000000 0.000000 0.000000 0.000000 0.000000 0.000000 5.887492 -10.132396 -2.554546 4.082611 2.131726 -0.738203 4.768802 19.034508 -1.778929 -12.681201 31.802253 5.948481 0.000000 0.000000 0.000000 0.000000 0.000000 0.000000 12.129970 54.797668 47.115972 -51.620669 -10.142799 -20.861735 14.677299 -35.582803 -39.595549 0.000000 0.000000 0.000000 -19.465679 -7.571569 40.544906 5.670418 18.453018 2.941580 28.855531 -35.059712 -25.330219 0.000000 0.000000 0.000000
